<?xml version="1.0" encoding="UTF-8"?>
<svg xmlns="http://www.w3.org/2000/svg" width="249" height="196" viewBox="0 0 249 196">
    <g fill="none" fill-rule="evenodd" transform="translate(.711 .701)">
        <path fill="#153442"
              d="M89.859 139.969C88.525 138.529 86.85 137.808 84.835 137.808 82.821 137.808 81.15 138.529 79.825 139.969 78.5 141.409 77.838 143.253 77.838 145.5 77.838 147.746 78.5 149.59 79.825 151.031 81.15 152.471 82.821 153.191 84.835 153.191 86.85 153.191 88.525 152.471 89.859 151.031 91.193 149.59 91.86 147.746 91.86 145.5 91.86 143.253 91.193 141.409 89.859 139.969M84.836 131.763C88.672 131.763 91.859 133.069 94.396 135.682 96.933 138.295 98.203 141.567 98.203 145.5 98.203 149.432 96.933 152.705 94.396 155.318 91.859 157.93 88.672 159.236 84.836 159.236 81.017 159.236 77.843 157.93 75.315 155.318 72.785 152.705 71.521 149.432 71.521 145.5 71.521 141.567 72.785 138.295 75.315 135.682 77.843 133.069 81.017 131.763 84.836 131.763M116.259 131.729C119.076 131.729 121.38 132.673 123.171 134.562 124.962 136.451 125.857 138.906 125.857 141.927L125.857 158.573 119.212 158.573 119.212 144.193C119.212 142.323 118.792 140.88 117.952 139.863 117.112 138.848 115.928 138.339 114.4 138.339 112.889 138.339 111.642 138.852 110.658 139.877 109.673 140.902 109.181 142.359 109.181 144.248L109.181 158.573 102.461 158.573 102.461 132.431 109.003 132.431 109.003 135.506C110.598 132.988 113.017 131.729 116.259 131.729M201.359 159.289C198.542 159.289 196.238 158.345 194.447 156.456 192.656 154.568 191.761 152.113 191.761 149.091L191.761 132.445 198.406 132.445 198.406 146.825C198.406 148.695 198.826 150.139 199.666 151.155 200.506 152.171 201.69 152.679 203.218 152.679 204.729 152.679 205.976 152.166 206.96 151.142 207.945 150.116 208.437 148.659 208.437 146.771L208.437 132.445 215.157 132.445 215.157 158.578 208.615 158.578 208.615 155.512C207.02 158.03 204.601 159.289 201.359 159.289"></path>
        <polygon fill="#153442"
                 points="165.329 120.259 165.329 137.303 179.301 137.303 179.301 120.259 185.897 120.259 185.897 158.58 179.301 158.58 179.301 144.318 165.329 144.318 165.329 158.58 158.764 158.58 158.764 120.259"></polygon>
        <path fill="#153442"
              d="M146.469 148.409C146.469 151.188 145.946 154.494 140.646 154.494 138.133 154.494 136.697 152.745 136.697 151.191 136.697 148.547 139.297 147.729 142.046 147.443L146.469 146.955 146.469 148.409ZM142.055 131.759C136.486 131.759 131.631 134.311 130.833 139.963L136.378 141.337C136.378 141.337 136.953 137.034 142.042 137.034 145.033 137.034 146.469 139.297 146.469 140.653 146.469 142.01 145.707 142.592 144.752 142.71L139.083 143.351C134.493 143.842 130.169 146.49 130.169 151.396 130.169 155.757 133.572 159.32 139.157 159.32 144.74 159.32 146.701 155.511 146.701 155.511L146.701 158.573 152.839 158.573 152.839 140.932C152.839 135.189 148.434 131.759 142.055 131.759L142.055 131.759ZM234.299 153.209C230.698 153.209 227.757 150.001 227.568 145.965L227.568 145.139C227.757 141.103 230.698 137.895 234.299 137.895 238.022 137.895 241.04 141.323 241.04 145.552 241.04 149.781 238.022 153.209 234.299 153.209M235.557 131.848C232.492 131.848 229.696 133.149 227.568 135.288L227.568 120.258 221.012 120.258 221.012 158.579 227.568 158.579 227.568 155.516C229.346 157.727 232.492 159.319 235.557 159.319 242.22 159.319 247.621 153.12 247.621 145.552 247.621 137.984 242.22 131.848 235.557 131.848M20.799 137.299 20.799 144.314 28.725 144.314C28.2 146.784 27.144 148.695 25.541 150.029 23.822 151.461 21.517 152.177 18.626 152.177 15.445 152.177 12.781 151.022 10.635 148.711 8.488 146.4 7.415 143.341 7.415 139.535 7.415 135.838 8.48 132.825 10.609 130.496 12.738 128.167 15.454 127.002 18.755 127.002 22.347 127.002 25.237 128.334 27.426 130.998L32.583 125.643C30.976 123.776 29.004 122.335 26.67 121.32 24.335 120.305 21.765 119.798 18.96 119.798 16.24 119.798 13.705 120.292 11.353 121.279 9.001 122.267 6.996 123.622 5.337 125.343 3.677 127.066 2.373 129.154 1.424 131.61.475 134.067 0 136.708 0 139.535 0 141.928.329 144.18.988 146.291 1.646 148.403 2.566 150.238 3.746 151.797 4.926 153.356 6.299 154.701 7.864 155.834 9.429 156.966 11.143 157.819 13.008 158.389 14.872 158.96 16.796 159.246 18.78 159.246 25.278 159.246 28.739 155.513 28.739 155.513L28.739 158.576 35.384 158.576 35.384 137.3 20.799 137.299Z"></path>
        <polygon fill="#153442" points="42.034 158.579 48.679 158.579 48.679 132.437 42.034 132.437"></polygon>
        <path fill="#153442"
              d="M45.339 120.089C46.386 120.089 47.256 120.446 47.948 121.161 48.641 121.875 48.987 122.77 48.987 123.845 48.987 124.92 48.641 125.815 47.948 126.529 47.256 127.243 46.386 127.6 45.339 127.6 44.297 127.6 43.43 127.243 42.74 126.529 42.049 125.815 41.704 124.92 41.704 123.845 41.704 122.77 42.049 121.875 42.74 121.161 43.43 120.446 44.297 120.089 45.339 120.089M68.339 132.429C65.097 132.429 62.678 132.988 61.083 135.506L61.083 132.43 54.541 132.43 54.541 158.572 61.261 158.572 61.261 145.524C61.261 143.636 61.753 142.179 62.738 141.153 63.722 140.128 64.969 139.616 66.48 139.616L69.512 139.616 69.512 132.429 68.339 132.429Z"></path>
        <polygon fill="#eac000" points="80.191 93.039 88.049 93.039 88.049 0 80.191 0"></polygon>
        <path fill="#eac000"
              d="M168.059,93.029 L163.681,93.029 C159.741,93.029 156.465,91.685 153.945,89.034 C151.908,86.892 150.478,84.019 149.573,80.252 L142.546,52.654 C141.117,46.683 138.472,45.879 136.073,45.879 C133.674,45.879 131.03,46.683 129.601,52.654 L129.588,52.709 L122.574,80.253 C121.669,84.019 120.239,86.892 118.202,89.034 C115.682,91.685 112.406,93.029 108.466,93.029 L96.289,93.029 L96.289,46.523 L104.147,46.523 L104.147,85.171 L108.466,85.171 C110.865,85.171 113.509,84.366 114.938,78.396 L114.952,78.341 L121.965,50.797 C122.87,47.03 124.3,44.157 126.337,42.015 C128.857,39.364 132.133,38.02 136.073,38.02 C140.014,38.02 143.29,39.364 145.81,42.015 C147.846,44.157 149.276,47.029 150.181,50.795 L157.209,78.396 C158.637,84.366 161.282,85.171 163.681,85.171 L168.059,85.171 L168.059,93.029 Z"></path>
        <text fill="#eac000" font-family="Roboto-Light, Roboto" font-size="22.903" font-weight="300">
            <tspan x="78.699" y="188.329">b</tspan>
        </text>
        <text fill="#eac000" font-family="Roboto-Light, Roboto" font-size="22.903" font-weight="300">
            <tspan x="91.845" y="188.329">e</tspan>
        </text>
        <text fill="#eac000" font-family="Roboto-Bold, Roboto" font-size="22.903" font-weight="bold">
            <tspan x="103.228" y="188.329">T</tspan>
        </text>
        <text fill="#eac000" font-family="Roboto-Bold, Roboto" font-size="22.903" font-weight="bold">
            <tspan x="115.985" y="188.329">a</tspan>
        </text>
        <text fill="#eac000" font-family="Roboto-Bold, Roboto" font-size="22.903" font-weight="bold">
            <tspan x="128.719" y="188.329">l</tspan>
        </text>
        <text fill="#eac000" font-family="Roboto-Bold, Roboto" font-size="22.903" font-weight="bold">
            <tspan x="135.247" y="188.329">e</tspan>
        </text>
        <text fill="#eac000" font-family="Roboto-Bold, Roboto" font-size="22.903" font-weight="bold">
            <tspan x="148.095" y="188.329">n</tspan>
        </text>
        <text fill="#eac000" font-family="Roboto-Bold, Roboto" font-size="22.903" font-weight="bold">
            <tspan x="161.379" y="188.329">t</tspan>
        </text>
    </g>
</svg>
